<svg xmlns="http://www.w3.org/2000/svg" width="14" height="14" viewBox="0 0 14 14"><defs><style>.a{fill:#026786;}</style></defs><path class="a" d="M15,8a7,7,0,1,0,7,7A7,7,0,0,0,15,8Zm0,3.1a1.185,1.185,0,1,1-1.185,1.185A1.185,1.185,0,0,1,15,11.1Zm1.581,7.169a.339.339,0,0,1-.339.339H13.758a.339.339,0,0,1-.339-.339V17.6a.339.339,0,0,1,.339-.339H14.1V15.452h-.339a.339.339,0,0,1-.339-.339v-.677a.339.339,0,0,1,.339-.339h1.806a.339.339,0,0,1,.339.339v2.823h.339a.339.339,0,0,1,.339.339Z" transform="translate(-8 -8)"/></svg>